<svg id="visual" viewBox="0 0 900 600" width="900" height="600" xmlns="http://www.w3.org/2000/svg" xmlns:xlink="http://www.w3.org/1999/xlink" version="1.1"><rect x="0" y="0" width="900" height="600" fill="#bbd0f0"></rect><defs><linearGradient id="grad1_0" x1="33.3%" y1="0%" x2="100%" y2="100%"><stop offset="20%" stop-color="#4facf7" stop-opacity="1"></stop><stop offset="80%" stop-color="#4facf7" stop-opacity="1"></stop></linearGradient></defs><defs><linearGradient id="grad1_1" x1="33.3%" y1="0%" x2="100%" y2="100%"><stop offset="20%" stop-color="#4facf7" stop-opacity="1"></stop><stop offset="80%" stop-color="#8fbdf4" stop-opacity="1"></stop></linearGradient></defs><defs><linearGradient id="grad1_2" x1="33.3%" y1="0%" x2="100%" y2="100%"><stop offset="20%" stop-color="#bbd0f0" stop-opacity="1"></stop><stop offset="80%" stop-color="#8fbdf4" stop-opacity="1"></stop></linearGradient></defs><defs><linearGradient id="grad2_0" x1="0%" y1="0%" x2="66.7%" y2="100%"><stop offset="20%" stop-color="#4facf7" stop-opacity="1"></stop><stop offset="80%" stop-color="#4facf7" stop-opacity="1"></stop></linearGradient></defs><defs><linearGradient id="grad2_1" x1="0%" y1="0%" x2="66.7%" y2="100%"><stop offset="20%" stop-color="#8fbdf4" stop-opacity="1"></stop><stop offset="80%" stop-color="#4facf7" stop-opacity="1"></stop></linearGradient></defs><defs><linearGradient id="grad2_2" x1="0%" y1="0%" x2="66.7%" y2="100%"><stop offset="20%" stop-color="#8fbdf4" stop-opacity="1"></stop><stop offset="80%" stop-color="#bbd0f0" stop-opacity="1"></stop></linearGradient></defs><g transform="translate(900, 0)"><path d="M0 486.7C-45 479.6 -90 472.4 -117 436.6C-144 400.8 -152.9 336.2 -180 311.8C-207.1 287.3 -252.3 302.9 -300.5 300.5C-348.7 298.1 -399.8 277.6 -421.5 243.4C-443.2 209.1 -435.5 161.1 -441.4 118.3C-447.4 75.4 -467.1 37.7 -486.7 0L0 0Z" fill="#a6c7f2"></path><path d="M0 324.5C-30 319.7 -60 315 -78 291.1C-96 267.2 -101.9 224.1 -120 207.8C-138.1 191.5 -168.2 202 -200.3 200.3C-232.5 198.7 -266.6 185.1 -281 162.2C-295.5 139.4 -290.3 107.4 -294.3 78.9C-298.3 50.3 -311.4 25.1 -324.5 0L0 0Z" fill="#73b5f5"></path><path d="M0 162.2C-15 159.9 -30 157.5 -39 145.5C-48 133.6 -51 112.1 -60 103.9C-69 95.8 -84.1 101 -100.2 100.2C-116.2 99.4 -133.3 92.5 -140.5 81.1C-147.7 69.7 -145.2 53.7 -147.1 39.4C-149.1 25.1 -155.7 12.6 -162.2 0L0 0Z" fill="#4facf7"></path></g><g transform="translate(0, 600)"><path d="M0 -486.7C45.3 -478.2 90.6 -469.6 115.2 -429.8C139.7 -390.1 143.5 -319.1 172 -297.9C200.5 -276.7 253.7 -305.3 306.9 -306.9C360.1 -308.5 413.4 -283.2 421.5 -243.4C429.7 -203.5 392.7 -149.1 396 -106.1C399.4 -63.1 443.1 -31.6 486.7 0L0 0Z" fill="#a6c7f2"></path><path d="M0 -324.5C30.2 -318.8 60.4 -313.1 76.8 -286.6C93.2 -260 95.7 -212.7 114.7 -198.6C133.7 -184.5 169.1 -203.5 204.6 -204.6C240.1 -205.7 275.6 -188.8 281 -162.2C286.5 -135.7 261.8 -99.4 264 -70.7C266.3 -42.1 295.4 -21 324.5 0L0 0Z" fill="#73b5f5"></path><path d="M0 -162.2C15.1 -159.4 30.2 -156.5 38.4 -143.3C46.6 -130 47.8 -106.4 57.3 -99.3C66.8 -92.2 84.6 -101.8 102.3 -102.3C120 -102.8 137.8 -94.4 140.5 -81.1C143.2 -67.8 130.9 -49.7 132 -35.4C133.1 -21 147.7 -10.5 162.2 0L0 0Z" fill="#4facf7"></path></g></svg>